<?xml version="1.0" encoding="UTF-8" standalone="no"?>
<!-- Created with Inkscape (http://www.inkscape.org/) -->

<svg
   width="25mm"
   height="25mm"
   viewBox="0 0 25 25"
   version="1.1"
   id="svg5"
   xml:space="preserve"
   inkscape:export-filename="bitmap.png"
   inkscape:export-xdpi="96"
   inkscape:export-ydpi="96"
   inkscape:version="1.2.2 (732a01da63, 2022-12-09)"
   sodipodi:docname="sidepterodactyl.svg"
   xmlns:inkscape="http://www.inkscape.org/namespaces/inkscape"
   xmlns:sodipodi="http://sodipodi.sourceforge.net/DTD/sodipodi-0.dtd"
   xmlns="http://www.w3.org/2000/svg"
   xmlns:svg="http://www.w3.org/2000/svg"><sodipodi:namedview
     id="namedview7"
     pagecolor="#ffffff"
     bordercolor="#000000"
     borderopacity="0.25"
     inkscape:showpageshadow="2"
     inkscape:pageopacity="0.0"
     inkscape:pagecheckerboard="true"
     inkscape:deskcolor="#d1d1d1"
     inkscape:document-units="mm"
     showgrid="false"
     inkscape:zoom="11.313709"
     inkscape:cx="24.130019"
     inkscape:cy="48.657785"
     inkscape:window-width="1350"
     inkscape:window-height="1230"
     inkscape:window-x="53"
     inkscape:window-y="12"
     inkscape:window-maximized="0"
     inkscape:current-layer="layer1" /><defs
     id="defs2" /><g
     inkscape:label="Layer 1"
     inkscape:groupmode="layer"
     id="layer1"><path
       id="path4542"
       style="fill:#ffffff;fill-opacity:1;stroke:#000000;stroke-width:0;stroke-dasharray:none;stroke-opacity:1"
       d="M 17.089396,6.5541219 C 14.217737,6.6211777 11.875069,7.7216111 8.6682047,11.56932 L 8.5658854,11.259778 C 9.8924743,9.9051303 10.787885,8.3740025 11.777059,6.8181885 4.0451191,9.3251044 0.36829676,14.512493 0.153479,17.106966 1.3645942,16.081987 3.1906297,14.610642 4.3051714,13.968357 3.3447672,15.189844 2.1517384,16.32817 1.18184,17.321424 l 5.3030355,-2.204 c 0.8433326,2.330868 3.5684295,4.071802 8.5988545,3.29245 1.100582,0.849752 1.926075,1.501885 2.756525,1.389951 0.128528,1.031136 1.076105,1.106568 1.701188,0.553455 -0.558111,-0.08747 -1.001,-0.08417 -1.020346,-0.736065 0.165031,-0.247278 0.446605,-0.445934 1.020346,-0.625093 -0.191114,-0.399725 -1.022463,-0.689239 -1.599649,0.29562 -0.915087,-0.130801 -1.352823,-0.861148 -1.400775,-1.254248 0.57641,-0.188091 1.145767,-0.41144 1.857341,-0.667112 -1.4932,-1.006543 -3.264294,-1.703138 -4.484998,-1.87172 0.812217,-4.165864 3.47674,-5.5665541 11.085112,-7.4383062 C 21.902031,7.1096246 19.326793,6.5018767 17.089396,6.5541219 Z M 4.644161,11.912968 C 4.65937,12.112069 4.4705681,12.384419 4.0819214,12.658659 3.8478761,12.694295 3.8584462,12.575513 3.8684976,12.496395 4.2206119,12.148001 4.3298262,12.036004 4.644161,11.912968 Z"
       sodipodi:nodetypes="scccccccccccccccccscccc" /><path
       style="fill:#ffffff;fill-opacity:1;stroke:#000000;stroke-width:0;stroke-dasharray:none;stroke-opacity:1"
       d="m 15.047483,18.59486 1.081764,0.885088 c -0.785921,0.336588 -1.823443,0.09979 -2.33093,-0.660645 z"
       id="path23681"
       sodipodi:nodetypes="cccc" /><path
       style="fill:#ffffff;fill-opacity:1;stroke:#000000;stroke-width:0;stroke-dasharray:none;stroke-opacity:1"
       d="m 16.776383,18.305457 c 0.01381,0.175352 0.173348,0.332954 0.32469,0.473568 L 18.004361,18.0219 c -0.392885,-0.252841 -0.867331,-0.243892 -1.227978,0.283557 z"
       id="path23683"
       sodipodi:nodetypes="cccc" /><path
       style="fill:#ffffff;fill-opacity:1;stroke:#000000;stroke-width:0;stroke-dasharray:none;stroke-opacity:1"
       d="M 5.9845016,9.0615197 C 7.2991054,5.9963415 11.58883,3.8425712 16.362825,4.150651 14.924293,4.8378689 12.946826,6.2683713 11.760846,7.678677 L 12.804392,5.9304125 C 10.51919,6.5777147 8.2641039,7.5998874 5.9845016,9.0615197 Z"
       id="path23685"
       sodipodi:nodetypes="ccccc" /></g></svg>
